<svg id="svg" version="1.1" width="400" height="60.549019607843135" xmlns="http://www.w3.org/2000/svg" xmlns:xlink="http://www.w3.org/1999/xlink" style="display: block;"><g id="svgg"><path id="path0" d="" stroke="none" fill="#000000" fill-rule="evenodd"></path><path id="path1" d="" stroke="none" fill="#808080" fill-rule="evenodd"></path><path id="path2" d="" stroke="none" fill="#aaaaaa" fill-rule="evenodd"></path><path id="path3" d="" stroke="none" fill="#d5d5d5" fill-rule="evenodd"></path><path id="path4" d="M6.367 12.053 C 6.257 12.358,6.167 12.995,6.167 13.470 C 6.167 13.945,6.092 14.333,6.000 14.333 C 5.908 14.333,5.842 14.390,5.853 14.458 C 5.930 14.945,5.808 16.837,5.704 16.773 C 5.633 16.729,5.553 17.193,5.526 17.805 C 5.499 18.416,5.407 18.942,5.322 18.972 C 5.236 19.003,5.167 19.551,5.167 20.190 C 5.167 20.830,5.101 21.313,5.021 21.263 C 4.942 21.214,4.865 21.676,4.852 22.290 C 4.839 22.903,4.754 23.479,4.664 23.569 C 4.574 23.660,4.500 24.201,4.500 24.773 C 4.500 25.346,4.421 25.862,4.325 25.922 C 4.229 25.981,4.152 26.417,4.154 26.890 C 4.161 28.477,3.968 30.249,3.775 30.372 C 3.645 30.456,3.664 30.497,3.833 30.500 C 4.003 30.503,4.022 30.544,3.892 30.628 C 3.714 30.741,3.657 31.129,3.400 33.958 C 3.343 34.583,3.227 35.001,3.111 35.003 C 3.000 35.004,3.024 35.075,3.167 35.167 C 3.333 35.274,3.347 35.329,3.208 35.331 C 3.063 35.333,3.000 35.664,3.000 36.427 C 3.000 37.028,2.936 37.480,2.858 37.432 C 2.780 37.384,2.702 37.810,2.685 38.378 C 2.668 38.947,2.582 39.485,2.494 39.573 C 2.406 39.661,2.333 40.193,2.333 40.756 C 2.333 41.318,2.277 41.834,2.208 41.903 C 2.051 42.060,2.046 42.102,2.021 43.427 C 2.008 44.108,1.937 44.481,1.833 44.417 C 1.728 44.352,1.667 44.745,1.667 45.480 C 1.667 46.122,1.592 46.693,1.500 46.750 C 1.408 46.807,1.333 47.336,1.333 47.927 L 1.333 49.000 6.565 49.000 L 11.797 49.000 11.874 48.375 C 11.916 48.031,11.966 47.000,11.985 46.083 C 12.004 45.167,12.090 44.345,12.176 44.258 C 12.263 44.171,12.333 43.740,12.333 43.300 L 12.333 42.500 13.917 42.500 L 15.500 42.500 15.500 43.236 C 15.500 43.641,15.572 43.997,15.660 44.028 C 15.748 44.058,15.831 44.926,15.845 45.957 C 15.859 46.987,15.928 47.794,16.000 47.750 C 16.071 47.706,16.126 47.763,16.122 47.877 C 16.118 47.990,16.126 48.290,16.140 48.542 L 16.167 49.000 21.167 49.000 L 26.167 49.000 26.167 48.014 C 26.167 47.472,26.096 47.003,26.009 46.972 C 25.923 46.942,25.836 46.410,25.816 45.792 C 25.797 45.173,25.718 44.667,25.640 44.667 C 25.563 44.667,25.500 44.296,25.500 43.843 C 25.500 43.390,25.425 42.973,25.333 42.917 C 25.242 42.860,25.167 42.739,25.167 42.647 C 25.167 42.555,25.226 42.517,25.299 42.562 C 25.372 42.607,25.367 42.218,25.288 41.697 C 25.209 41.176,25.106 40.300,25.058 39.750 C 25.011 39.200,24.903 38.679,24.819 38.592 C 24.735 38.505,24.667 37.998,24.667 37.467 C 24.667 36.933,24.592 36.500,24.500 36.500 C 24.407 36.500,24.333 36.052,24.333 35.490 C 24.333 34.859,24.271 34.519,24.167 34.583 C 24.062 34.648,24.000 34.280,24.000 33.593 C 24.000 32.976,23.928 32.500,23.833 32.500 C 23.739 32.500,23.666 32.012,23.664 31.375 C 23.662 30.587,23.613 30.325,23.500 30.500 C 23.387 30.674,23.338 30.383,23.336 29.542 C 23.334 28.849,23.262 28.333,23.167 28.333 C 23.075 28.333,23.000 27.973,23.000 27.533 C 23.000 27.093,22.906 26.632,22.792 26.509 C 22.625 26.329,22.625 26.308,22.792 26.402 C 22.906 26.467,23.000 26.440,23.000 26.343 C 23.000 26.246,22.925 26.167,22.833 26.167 C 22.742 26.167,22.667 25.767,22.667 25.278 C 22.667 24.789,22.615 24.337,22.552 24.274 C 22.488 24.211,22.456 23.786,22.481 23.329 C 22.505 22.873,22.457 22.500,22.373 22.500 C 22.209 22.500,22.209 22.496,22.158 21.205 C 22.139 20.721,22.058 20.286,21.978 20.236 C 21.898 20.187,21.833 19.708,21.833 19.171 C 21.833 18.634,21.763 18.169,21.676 18.139 C 21.589 18.108,21.501 17.648,21.480 17.117 C 21.459 16.586,21.380 16.112,21.304 16.066 C 21.229 16.019,21.167 15.652,21.167 15.250 C 21.167 14.848,21.092 14.473,21.000 14.417 C 20.908 14.360,20.833 13.789,20.833 13.147 C 20.833 12.412,20.772 12.018,20.667 12.083 C 20.575 12.140,20.500 12.032,20.500 11.843 C 20.500 11.502,20.455 11.500,13.533 11.500 L 6.567 11.500 6.367 12.053 M59.500 14.000 L 59.500 16.500 64.333 16.500 L 69.167 16.500 69.167 14.000 L 69.167 11.500 64.333 11.500 L 59.500 11.500 59.500 14.000 M119.875 11.951 C 119.760 12.198,119.667 12.835,119.667 13.367 C 119.667 13.898,119.600 14.333,119.518 14.333 C 119.394 14.333,119.291 15.498,119.308 16.708 C 119.311 16.869,119.245 17.000,119.163 17.000 C 119.080 17.000,119.007 17.394,119.001 17.875 C 118.983 19.170,118.960 19.333,118.790 19.333 C 118.705 19.333,118.662 19.746,118.693 20.250 C 118.724 20.755,118.702 21.167,118.643 21.167 C 118.584 21.167,118.490 21.710,118.434 22.375 C 118.222 24.858,118.130 25.588,118.009 25.750 C 117.941 25.842,117.867 26.359,117.846 26.899 C 117.824 27.439,117.738 28.063,117.653 28.285 C 117.569 28.507,117.500 29.058,117.500 29.511 C 117.500 29.963,117.425 30.333,117.333 30.333 C 117.238 30.333,117.167 30.830,117.167 31.490 C 117.167 32.126,117.092 32.693,117.000 32.750 C 116.908 32.807,116.833 33.336,116.833 33.927 C 116.833 34.673,116.770 35.001,116.625 35.003 C 116.486 35.004,116.500 35.059,116.667 35.167 C 116.804 35.256,116.842 35.329,116.750 35.331 C 116.658 35.332,116.575 35.502,116.564 35.708 C 116.485 37.246,116.428 37.642,116.297 37.561 C 116.215 37.510,116.147 37.907,116.146 38.443 C 116.144 40.137,115.976 41.741,115.776 41.990 C 115.621 42.184,115.632 42.203,115.833 42.091 C 116.037 41.977,116.044 41.993,115.875 42.176 C 115.760 42.299,115.667 42.756,115.667 43.190 C 115.667 43.625,115.592 44.027,115.500 44.083 C 115.408 44.140,115.333 44.744,115.333 45.427 C 115.333 46.142,115.263 46.667,115.167 46.667 C 115.071 46.667,115.000 47.167,115.000 47.833 L 115.000 49.000 120.167 49.000 L 125.333 49.000 125.333 48.593 C 125.333 48.369,125.408 48.140,125.500 48.083 C 125.594 48.025,125.667 47.204,125.667 46.190 C 125.667 44.989,125.735 44.326,125.875 44.176 C 126.044 43.993,126.037 43.977,125.833 44.091 C 125.621 44.210,125.616 44.190,125.804 43.959 C 125.925 43.809,126.010 43.551,125.993 43.385 C 125.901 42.498,125.896 42.500,127.583 42.500 L 129.167 42.500 129.167 43.222 C 129.167 43.619,129.217 43.995,129.279 44.057 C 129.340 44.118,129.376 44.889,129.358 45.770 C 129.339 46.705,129.399 47.461,129.502 47.585 C 129.599 47.702,129.667 47.862,129.653 47.941 C 129.639 48.019,129.636 48.290,129.647 48.542 L 129.667 49.000 134.750 49.000 L 139.833 49.000 139.833 48.033 C 139.833 47.502,139.763 46.995,139.676 46.908 C 139.590 46.821,139.503 46.300,139.483 45.750 C 139.462 45.200,139.385 44.710,139.312 44.660 C 139.238 44.611,139.163 44.139,139.146 43.612 C 139.129 43.085,139.051 42.615,138.974 42.567 C 138.897 42.519,138.833 42.125,138.833 41.690 C 138.833 41.256,138.761 40.828,138.673 40.740 C 138.585 40.651,138.499 40.114,138.481 39.545 C 138.464 38.976,138.387 38.550,138.309 38.599 C 138.231 38.647,138.167 38.194,138.167 37.593 C 138.167 36.976,138.094 36.500,138.000 36.500 C 137.908 36.500,137.833 36.140,137.833 35.700 C 137.833 35.260,137.743 34.810,137.633 34.700 C 137.478 34.544,137.487 34.499,137.675 34.497 C 137.841 34.496,137.857 34.456,137.725 34.372 C 137.617 34.303,137.482 33.528,137.415 32.583 C 137.349 31.667,137.241 30.842,137.173 30.750 C 137.106 30.658,137.034 30.133,137.013 29.583 C 136.993 29.033,136.906 28.512,136.821 28.425 C 136.736 28.338,136.667 27.832,136.667 27.300 C 136.667 26.767,136.592 26.333,136.500 26.333 C 136.408 26.333,136.333 25.892,136.333 25.343 C 136.333 24.799,136.258 24.307,136.167 24.250 C 136.075 24.193,136.000 23.701,136.000 23.157 C 136.000 22.608,135.926 22.167,135.833 22.167 C 135.741 22.167,135.667 21.722,135.667 21.167 C 135.667 20.611,135.593 20.167,135.500 20.167 C 135.406 20.167,135.333 19.694,135.333 19.083 C 135.333 18.472,135.261 18.000,135.167 18.000 C 135.075 18.000,135.000 17.592,135.000 17.093 C 135.000 16.594,134.934 16.146,134.853 16.096 C 134.773 16.046,134.653 15.142,134.587 14.086 C 134.520 13.020,134.400 12.209,134.317 12.260 C 134.234 12.311,134.167 12.161,134.167 11.927 L 134.167 11.500 127.125 11.501 L 120.083 11.503 119.875 11.951 M189.000 14.000 L 189.000 16.500 193.833 16.500 L 198.667 16.500 198.667 14.000 L 198.667 11.500 193.833 11.500 L 189.000 11.500 189.000 14.000 M271.167 30.250 L 271.167 49.000 276.250 49.000 L 281.333 49.000 281.333 41.500 L 281.333 34.000 284.083 34.000 C 286.171 34.000,286.834 33.950,286.836 33.792 C 286.838 33.653,286.892 33.667,287.000 33.833 C 287.108 34.000,287.162 34.014,287.164 33.875 C 287.166 33.755,287.379 33.667,287.667 33.667 C 287.942 33.667,288.167 33.592,288.167 33.500 C 288.167 33.408,288.305 33.333,288.474 33.333 C 289.261 33.333,291.333 31.687,291.333 31.062 C 291.333 30.925,291.397 30.853,291.475 30.901 C 292.480 31.522,292.353 15.858,291.347 15.034 C 291.202 14.916,291.100 14.803,291.120 14.784 C 291.268 14.647,290.897 14.001,290.570 13.826 C 290.348 13.708,290.201 13.577,290.242 13.535 C 290.369 13.409,289.874 13.000,289.595 13.000 C 289.451 13.000,289.333 12.925,289.333 12.833 C 289.333 12.742,289.221 12.667,289.083 12.667 C 288.946 12.667,288.833 12.608,288.833 12.537 C 288.833 12.372,287.035 11.833,286.483 11.833 C 286.254 11.833,285.966 11.740,285.842 11.625 C 285.660 11.456,285.643 11.464,285.750 11.667 C 285.857 11.870,285.840 11.878,285.658 11.708 C 285.485 11.548,283.776 11.500,278.300 11.500 L 271.167 11.500 271.167 30.250 M294.500 14.000 L 294.500 16.500 299.333 16.500 L 304.167 16.500 304.167 14.000 L 304.167 11.500 299.333 11.500 L 294.500 11.500 294.500 14.000 M45.333 16.667 L 45.333 19.000 44.417 19.000 L 43.500 19.000 43.500 21.500 L 43.500 24.000 44.417 24.000 L 45.333 24.000 45.353 34.625 C 45.364 40.469,45.361 45.344,45.346 45.458 C 45.331 45.573,45.397 45.667,45.493 45.667 C 45.588 45.667,45.667 45.838,45.667 46.047 C 45.667 46.255,45.817 46.535,46.000 46.667 C 46.183 46.799,46.333 47.007,46.333 47.130 C 46.333 47.253,46.408 47.307,46.500 47.250 C 46.592 47.193,46.667 47.226,46.667 47.322 C 46.667 47.682,47.724 48.495,48.313 48.589 C 48.645 48.642,49.047 48.756,49.206 48.842 C 49.367 48.930,51.423 49.000,53.831 49.000 L 58.167 49.000 58.167 46.333 C 58.167 44.321,58.116 43.662,57.958 43.648 C 57.844 43.638,57.563 43.612,57.333 43.590 C 57.104 43.569,56.574 43.540,56.156 43.526 L 55.396 43.500 55.343 42.708 C 55.314 42.273,55.285 41.753,55.278 41.552 C 55.272 41.352,55.207 41.225,55.133 41.271 C 55.060 41.316,55.000 37.449,55.000 32.677 L 55.000 24.000 56.417 24.000 L 57.833 24.000 57.833 21.500 L 57.833 19.000 56.417 19.000 L 55.000 19.000 55.000 16.667 L 55.000 14.333 50.167 14.333 L 45.333 14.333 45.333 16.667 M94.667 16.667 L 94.667 19.000 93.667 19.000 L 92.667 19.000 92.667 21.500 L 92.667 24.000 93.667 24.000 L 94.667 24.000 94.667 34.755 C 94.667 46.279,94.667 46.277,95.501 47.001 C 95.684 47.159,95.833 47.376,95.833 47.483 C 95.833 47.590,95.965 47.727,96.125 47.788 C 96.285 47.850,96.558 48.031,96.730 48.191 C 97.343 48.760,98.461 48.895,103.042 48.953 L 107.500 49.010 107.500 46.339 C 107.500 44.325,107.449 43.661,107.292 43.642 C 107.177 43.628,106.821 43.601,106.500 43.581 C 104.539 43.461,104.576 43.503,104.621 41.500 C 104.631 41.045,104.604 40.990,104.498 41.250 C 104.424 41.433,104.355 37.627,104.345 32.792 L 104.328 24.000 105.748 24.000 L 107.167 24.000 107.167 21.500 L 107.167 19.000 105.750 19.000 L 104.333 19.000 104.333 16.667 L 104.333 14.333 99.500 14.333 L 94.667 14.333 94.667 16.667 M248.667 16.667 L 248.667 19.000 247.667 19.000 L 246.667 19.000 246.667 21.500 L 246.667 24.000 247.667 24.000 L 248.667 24.000 248.667 34.833 C 248.667 41.944,248.724 45.667,248.833 45.667 C 248.925 45.667,249.000 45.782,249.000 45.923 C 249.000 46.715,250.722 48.424,251.685 48.586 C 252.042 48.647,252.333 48.758,252.333 48.833 C 252.333 48.909,254.396 48.980,256.917 48.992 L 261.500 49.013 261.500 46.340 C 261.500 44.870,261.444 43.657,261.375 43.646 C 261.306 43.635,260.987 43.608,260.667 43.585 C 258.844 43.458,258.722 43.433,258.697 43.177 C 258.683 43.034,258.663 42.410,258.653 41.792 C 258.643 41.173,258.567 40.667,258.484 40.667 C 258.396 40.667,258.333 37.191,258.333 32.333 L 258.333 24.000 259.750 24.000 L 261.167 24.000 261.167 21.500 L 261.167 19.000 259.750 19.000 L 258.333 19.000 258.333 16.667 L 258.333 14.333 253.500 14.333 L 248.667 14.333 248.667 16.667 M40.667 17.833 C 40.667 17.925,40.493 18.000,40.281 18.000 C 40.070 18.000,39.735 18.150,39.538 18.333 C 39.342 18.517,39.121 18.667,39.047 18.667 C 38.974 18.667,38.684 18.910,38.403 19.208 C 38.122 19.506,37.729 19.860,37.529 19.995 C 37.330 20.130,37.167 20.374,37.167 20.537 C 37.167 20.700,37.092 20.833,37.000 20.833 C 36.904 20.833,36.833 20.306,36.833 19.583 L 36.833 18.333 32.000 18.333 L 27.167 18.333 27.167 33.667 L 27.167 49.000 32.000 49.000 L 36.833 49.000 36.860 42.625 C 36.874 39.119,36.882 36.156,36.878 36.042 C 36.874 35.927,36.937 35.833,37.019 35.833 C 37.100 35.833,37.167 35.754,37.167 35.657 C 37.167 35.560,37.081 35.533,36.976 35.598 C 36.839 35.683,36.821 35.579,36.910 35.233 C 36.979 34.967,37.071 33.963,37.114 33.002 C 37.157 32.041,37.250 31.216,37.320 31.169 C 37.391 31.122,37.499 30.877,37.561 30.625 C 37.623 30.373,37.755 30.167,37.856 30.167 C 37.957 30.167,38.297 29.940,38.613 29.663 C 38.928 29.386,39.266 29.208,39.362 29.268 C 39.458 29.327,39.588 29.293,39.651 29.192 C 39.714 29.091,40.198 28.990,40.728 28.968 C 41.258 28.946,41.728 28.869,41.772 28.797 C 41.817 28.725,41.928 28.667,42.020 28.667 C 42.111 28.667,42.130 28.760,42.061 28.875 C 41.976 29.017,42.026 29.010,42.218 28.855 C 42.473 28.648,42.500 28.092,42.500 23.146 L 42.500 17.667 41.583 17.667 C 41.079 17.667,40.667 17.742,40.667 17.833 M77.750 17.833 C 77.693 17.925,77.389 18.000,77.073 18.000 C 76.758 18.000,76.500 18.075,76.500 18.167 C 76.500 18.258,76.361 18.333,76.190 18.333 C 75.756 18.333,73.825 19.352,73.932 19.525 C 73.980 19.603,73.929 19.667,73.817 19.667 C 73.390 19.667,72.000 21.376,72.000 21.901 C 72.000 22.032,71.928 22.164,71.841 22.194 C 71.753 22.225,71.663 22.531,71.640 22.875 C 71.617 23.219,71.539 23.500,71.466 23.500 C 71.393 23.500,71.333 24.925,71.333 26.667 C 71.333 28.667,71.395 29.833,71.500 29.833 C 71.592 29.833,71.667 30.058,71.667 30.333 C 71.667 30.608,71.742 30.833,71.833 30.833 C 71.925 30.833,72.000 31.007,72.000 31.219 C 72.000 31.430,72.150 31.765,72.333 31.962 C 72.517 32.158,72.667 32.398,72.667 32.493 C 72.667 32.589,72.792 32.667,72.944 32.667 C 73.097 32.667,73.177 32.712,73.121 32.768 C 73.016 32.872,73.732 33.667,73.931 33.667 C 73.993 33.667,74.179 33.822,74.343 34.011 C 74.507 34.200,74.685 34.350,74.737 34.344 C 75.068 34.307,75.174 34.354,75.083 34.500 C 75.027 34.592,75.065 34.667,75.169 34.667 C 75.272 34.667,75.470 34.780,75.609 34.918 C 75.747 35.057,75.930 35.127,76.015 35.074 C 76.100 35.022,76.214 35.096,76.269 35.239 C 76.324 35.383,76.511 35.500,76.684 35.500 C 76.858 35.500,77.000 35.575,77.000 35.667 C 77.000 35.758,77.098 35.833,77.219 35.833 C 77.339 35.833,77.598 35.983,77.795 36.167 C 77.992 36.350,78.268 36.500,78.410 36.500 C 78.551 36.500,78.667 36.575,78.667 36.667 C 78.667 36.758,78.779 36.833,78.917 36.833 C 79.054 36.833,79.167 36.908,79.167 37.000 C 79.167 37.092,79.310 37.167,79.486 37.167 C 79.662 37.167,79.831 37.236,79.861 37.321 C 79.892 37.406,80.029 37.499,80.167 37.529 C 80.304 37.559,80.454 37.625,80.500 37.675 C 80.761 37.964,81.803 38.477,81.918 38.373 C 81.992 38.305,81.999 38.344,81.934 38.458 C 81.868 38.573,81.896 38.667,81.997 38.667 C 82.426 38.667,82.975 39.429,83.018 40.083 C 83.042 40.450,83.142 40.856,83.239 40.985 C 83.368 41.156,83.359 41.240,83.208 41.291 C 83.094 41.330,83.000 41.434,83.000 41.524 C 83.000 41.613,83.059 41.650,83.132 41.605 C 83.205 41.560,83.276 41.686,83.291 41.884 C 83.313 42.171,83.286 42.194,83.162 41.998 C 83.052 41.824,83.004 42.009,83.003 42.614 C 83.000 43.587,82.838 43.713,81.618 43.696 C 81.070 43.689,80.248 43.339,80.758 43.331 C 80.845 43.329,80.823 43.269,80.708 43.196 C 80.586 43.119,80.491 42.671,80.478 42.119 C 80.466 41.599,80.404 41.207,80.339 41.246 C 80.275 41.286,80.222 41.213,80.222 41.083 C 80.222 40.954,80.292 40.891,80.378 40.944 C 80.463 40.997,80.451 40.886,80.350 40.698 C 80.249 40.509,80.167 39.863,80.167 39.261 L 80.167 38.167 75.911 38.167 L 71.656 38.167 71.675 40.917 C 71.686 42.462,71.761 43.667,71.847 43.667 C 71.931 43.667,72.000 43.892,72.000 44.167 C 72.000 44.442,72.063 44.667,72.139 44.667 C 72.215 44.667,72.290 44.779,72.306 44.917 C 72.321 45.054,72.346 45.279,72.361 45.417 C 72.376 45.554,72.451 45.667,72.528 45.667 C 72.604 45.667,72.667 45.744,72.667 45.839 C 72.667 45.934,72.910 46.266,73.208 46.577 C 73.506 46.889,73.938 47.372,74.167 47.650 C 74.396 47.929,74.715 48.159,74.875 48.162 C 75.035 48.164,75.167 48.242,75.167 48.333 C 75.167 48.425,75.223 48.488,75.292 48.473 C 75.541 48.418,76.333 48.706,76.333 48.851 C 76.333 48.933,76.558 49.000,76.833 49.000 C 77.108 49.000,77.333 49.075,77.333 49.167 C 77.333 49.258,77.675 49.333,78.093 49.333 C 78.517 49.333,78.811 49.402,78.758 49.488 C 78.700 49.580,80.056 49.649,82.151 49.660 C 84.390 49.671,85.678 49.616,85.747 49.505 C 85.805 49.411,86.069 49.333,86.333 49.333 C 86.598 49.333,86.860 49.258,86.917 49.167 C 86.973 49.075,87.165 49.000,87.343 49.000 C 87.521 49.000,87.667 48.925,87.667 48.833 C 87.667 48.742,87.787 48.667,87.933 48.667 C 88.383 48.667,89.337 48.141,89.223 47.956 C 89.164 47.860,89.192 47.829,89.286 47.887 C 89.488 48.012,90.060 47.542,90.215 47.125 C 90.274 46.965,90.438 46.833,90.578 46.833 C 90.722 46.833,90.833 46.688,90.833 46.500 C 90.833 46.317,90.908 46.167,91.000 46.167 C 91.092 46.167,91.167 46.054,91.167 45.917 C 91.167 45.779,91.242 45.667,91.333 45.667 C 91.425 45.667,91.500 45.532,91.500 45.367 C 91.500 45.202,91.594 44.973,91.708 44.858 C 92.164 44.403,91.988 36.537,91.500 35.573 C 91.071 34.725,89.306 32.833,88.944 32.833 C 88.832 32.833,88.632 32.683,88.500 32.500 C 88.368 32.317,88.163 32.167,88.044 32.167 C 87.799 32.167,87.206 31.851,86.868 31.540 C 86.742 31.425,86.579 31.368,86.505 31.413 C 86.432 31.459,86.274 31.380,86.156 31.237 C 85.855 30.874,85.023 30.466,84.828 30.586 C 84.739 30.641,84.667 30.607,84.667 30.510 C 84.667 30.413,84.479 30.333,84.250 30.333 C 84.021 30.333,83.833 30.258,83.833 30.167 C 83.833 30.075,83.737 30.000,83.620 30.000 C 83.503 30.000,83.299 29.850,83.167 29.667 C 83.035 29.483,82.793 29.333,82.630 29.333 C 82.467 29.333,82.333 29.258,82.333 29.167 C 82.333 29.075,82.227 29.000,82.097 29.000 C 81.967 29.000,81.616 28.741,81.318 28.425 C 81.019 28.108,80.713 27.888,80.638 27.935 C 80.562 27.981,80.500 27.903,80.500 27.760 C 80.500 27.617,80.425 27.500,80.333 27.500 C 80.242 27.500,80.167 27.162,80.167 26.750 C 80.167 26.337,80.092 26.000,80.000 26.000 C 79.908 26.000,79.834 25.719,79.836 25.375 C 79.838 24.910,79.880 24.814,80.000 25.000 C 80.122 25.189,80.162 25.115,80.164 24.696 C 80.171 23.207,82.309 23.259,82.365 24.750 C 82.378 25.079,82.451 25.386,82.527 25.434 C 82.604 25.481,82.667 26.153,82.667 26.927 L 82.667 28.333 87.083 28.333 L 91.500 28.333 91.500 25.593 C 91.500 23.946,91.434 22.812,91.333 22.750 C 91.242 22.693,91.167 22.480,91.167 22.277 C 91.167 22.073,91.017 21.799,90.833 21.667 C 90.650 21.535,90.500 21.325,90.500 21.200 C 90.500 21.076,90.202 20.698,89.839 20.362 C 88.868 19.464,88.699 19.333,88.507 19.333 C 88.411 19.333,88.333 19.258,88.333 19.167 C 88.333 19.075,88.183 19.000,88.000 19.000 C 87.817 19.000,87.667 18.925,87.667 18.833 C 87.667 18.742,87.517 18.667,87.333 18.667 C 87.150 18.667,87.000 18.592,87.000 18.500 C 87.000 18.408,86.817 18.333,86.593 18.333 C 86.369 18.333,86.140 18.258,86.083 18.167 C 86.027 18.075,85.722 18.000,85.407 18.000 C 85.091 18.000,84.833 17.925,84.833 17.833 C 84.833 17.728,83.559 17.667,81.343 17.667 C 79.196 17.667,77.813 17.731,77.750 17.833 M144.500 17.823 C 144.500 17.921,144.275 18.000,144.000 18.000 C 143.725 18.000,143.500 18.075,143.500 18.167 C 143.500 18.258,143.383 18.333,143.240 18.333 C 143.097 18.333,143.027 18.408,143.083 18.500 C 143.140 18.592,143.105 18.667,143.005 18.667 C 142.662 18.667,141.333 20.151,141.331 20.537 C 141.329 20.843,141.297 20.868,141.167 20.667 C 141.040 20.471,141.005 20.514,141.003 20.865 C 141.001 21.112,140.925 21.360,140.833 21.417 C 140.742 21.473,140.667 21.736,140.667 22.000 C 140.667 22.264,140.594 22.525,140.505 22.580 C 140.278 22.720,140.270 41.000,140.497 41.000 C 140.591 41.000,140.667 41.258,140.667 41.573 C 140.667 41.889,140.742 42.193,140.833 42.250 C 140.925 42.307,141.000 42.511,141.000 42.704 C 141.000 42.897,141.049 43.007,141.109 42.947 C 141.243 42.813,141.654 43.333,141.661 43.647 C 141.669 43.968,142.336 44.516,142.563 44.386 C 142.666 44.328,142.697 44.338,142.633 44.410 C 142.478 44.582,142.906 45.000,143.238 45.000 C 143.382 45.000,143.500 45.079,143.500 45.177 C 143.500 45.274,143.575 45.307,143.667 45.250 C 143.758 45.193,143.833 45.218,143.833 45.304 C 143.833 45.817,149.260 46.351,149.727 45.885 C 149.790 45.821,150.009 45.744,150.213 45.713 C 150.417 45.682,150.608 45.584,150.639 45.494 C 150.670 45.405,150.758 45.370,150.834 45.417 C 150.911 45.464,151.075 45.409,151.199 45.293 C 151.323 45.178,151.535 45.059,151.669 45.028 C 151.804 44.998,151.952 44.923,151.998 44.862 C 152.097 44.732,152.788 44.333,152.914 44.333 C 153.076 44.333,153.000 45.814,152.833 45.917 C 152.742 45.973,152.667 46.095,152.667 46.186 C 152.667 46.278,152.742 46.307,152.833 46.250 C 152.925 46.193,153.000 46.226,153.000 46.323 C 153.000 46.421,152.925 46.500,152.833 46.500 C 152.742 46.500,152.667 46.879,152.667 47.343 C 152.667 47.863,152.603 48.147,152.500 48.083 C 152.408 48.027,152.333 48.097,152.333 48.240 C 152.333 48.426,152.155 48.506,151.708 48.520 C 150.538 48.557,150.187 48.345,150.093 47.544 C 150.063 47.291,150.029 47.027,150.019 46.958 C 150.009 46.890,147.825 46.833,145.167 46.833 L 140.333 46.833 140.333 48.073 C 140.333 48.756,140.408 49.360,140.500 49.417 C 140.592 49.473,140.667 49.704,140.667 49.929 C 140.667 50.434,140.944 50.938,141.542 51.521 C 141.794 51.766,142.006 52.106,142.013 52.275 C 142.021 52.456,142.061 52.496,142.112 52.372 C 142.169 52.228,142.304 52.296,142.528 52.581 C 142.991 53.170,144.570 53.853,145.708 53.958 C 146.235 54.007,146.667 54.111,146.667 54.190 C 146.667 54.269,148.504 54.333,150.750 54.333 C 153.002 54.333,154.833 54.267,154.833 54.186 C 154.833 54.105,155.322 53.987,155.918 53.923 C 156.515 53.859,157.096 53.719,157.210 53.612 C 157.324 53.504,157.492 53.409,157.583 53.399 C 157.975 53.356,158.500 53.116,158.500 52.981 C 158.500 52.900,158.618 52.833,158.763 52.833 C 159.357 52.833,161.663 50.207,161.669 49.523 C 161.671 49.286,161.693 49.283,161.833 49.500 C 161.953 49.686,161.996 49.586,161.997 49.115 C 161.999 48.735,162.067 48.522,162.167 48.583 C 162.277 48.652,162.333 43.584,162.333 33.505 L 162.333 18.324 157.667 18.339 L 153.000 18.353 153.000 18.810 C 153.000 19.061,152.906 19.368,152.792 19.491 C 152.622 19.674,152.630 19.689,152.833 19.576 C 153.049 19.455,153.052 19.475,152.853 19.720 C 152.607 20.023,152.417 19.945,151.814 19.292 C 151.666 19.131,151.455 19.000,151.346 19.000 C 151.236 19.000,151.193 18.925,151.250 18.833 C 151.307 18.742,151.199 18.667,151.010 18.667 C 150.821 18.667,150.667 18.592,150.667 18.500 C 150.667 18.408,150.512 18.333,150.323 18.333 C 150.135 18.333,150.027 18.258,150.083 18.167 C 150.143 18.069,149.974 18.000,149.677 18.000 C 149.396 18.000,149.167 17.936,149.167 17.858 C 149.167 17.779,148.117 17.700,146.833 17.681 C 145.280 17.658,144.500 17.706,144.500 17.823 M172.167 17.841 C 172.167 17.928,171.867 18.000,171.500 18.000 C 171.133 18.000,170.833 18.075,170.833 18.167 C 170.833 18.258,170.679 18.333,170.491 18.333 C 170.303 18.333,169.878 18.518,169.547 18.743 C 169.215 18.968,168.870 19.106,168.780 19.050 C 168.688 18.993,168.668 19.033,168.734 19.141 C 168.803 19.253,168.751 19.333,168.607 19.333 C 168.472 19.333,168.335 19.412,168.303 19.509 C 168.270 19.606,168.104 19.705,167.932 19.731 C 167.761 19.756,167.518 19.916,167.394 20.087 C 167.269 20.257,167.164 20.326,167.161 20.240 C 167.159 20.154,166.971 20.383,166.746 20.750 C 166.520 21.117,166.335 21.346,166.334 21.260 C 166.332 20.897,165.843 21.787,165.836 22.167 C 165.830 22.498,165.795 22.532,165.667 22.333 C 165.540 22.137,165.505 22.180,165.503 22.528 C 165.501 22.772,165.429 22.997,165.342 23.028 C 165.255 23.058,165.165 23.402,165.142 23.792 C 165.120 24.181,165.048 24.500,164.982 24.500 C 164.916 24.500,164.853 25.775,164.841 27.333 L 164.821 30.167 169.410 30.167 L 174.000 30.167 174.000 28.177 C 174.000 27.030,174.071 26.143,174.167 26.083 C 174.258 26.027,174.333 25.578,174.333 25.087 C 174.333 23.973,174.447 23.667,174.861 23.667 C 175.040 23.667,175.140 23.592,175.083 23.500 C 175.027 23.408,175.060 23.333,175.157 23.333 C 175.254 23.333,175.333 23.408,175.333 23.500 C 175.333 23.592,175.438 23.667,175.566 23.667 C 175.851 23.667,176.011 24.023,176.167 25.000 C 176.232 25.412,176.341 25.900,176.409 26.083 C 176.507 26.350,176.495 26.367,176.352 26.167 C 176.202 25.959,176.171 25.980,176.169 26.292 C 176.168 26.498,176.242 26.667,176.333 26.667 C 176.531 26.667,176.560 27.610,176.367 27.729 C 176.293 27.775,176.215 28.124,176.192 28.505 C 176.149 29.229,175.447 30.211,175.275 29.787 C 175.212 29.630,175.190 29.631,175.180 29.792 C 175.173 29.906,175.060 30.000,174.931 30.000 C 174.801 30.000,174.669 30.077,174.638 30.170 C 174.606 30.264,174.356 30.381,174.082 30.430 C 173.808 30.480,173.512 30.590,173.425 30.677 C 173.338 30.763,173.132 30.833,172.967 30.833 C 172.802 30.833,172.667 30.908,172.667 31.000 C 172.667 31.092,172.479 31.167,172.250 31.167 C 172.021 31.167,171.833 31.242,171.833 31.333 C 171.833 31.425,171.683 31.500,171.500 31.500 C 171.317 31.500,171.167 31.575,171.167 31.667 C 171.167 31.758,171.053 31.833,170.915 31.833 C 170.599 31.833,169.103 32.521,169.028 32.700 C 168.997 32.774,168.862 32.833,168.727 32.833 C 168.259 32.833,167.026 33.498,166.680 33.937 C 166.490 34.180,166.333 34.290,166.333 34.183 C 166.333 34.042,166.268 34.047,166.101 34.202 C 165.973 34.320,165.898 34.465,165.933 34.524 C 165.969 34.583,165.886 34.675,165.749 34.727 C 165.612 34.780,165.500 34.980,165.500 35.171 C 165.500 35.363,165.425 35.473,165.333 35.417 C 165.239 35.358,165.167 35.495,165.167 35.730 C 165.167 35.959,165.094 36.192,165.005 36.247 C 164.623 36.483,164.961 46.500,165.352 46.500 C 165.433 46.500,165.500 46.598,165.500 46.719 C 165.500 46.839,165.650 47.098,165.833 47.295 C 166.017 47.492,166.167 47.773,166.167 47.920 C 166.167 48.066,166.242 48.140,166.333 48.083 C 166.425 48.027,166.500 48.046,166.500 48.126 C 166.500 48.304,167.774 49.000,168.099 49.000 C 168.228 49.000,168.333 49.075,168.333 49.167 C 168.333 49.258,168.479 49.333,168.657 49.333 C 168.835 49.333,169.027 49.408,169.083 49.500 C 169.222 49.724,173.667 49.724,173.667 49.500 C 173.667 49.408,173.854 49.333,174.083 49.333 C 174.313 49.333,174.500 49.258,174.500 49.167 C 174.500 49.075,174.612 49.000,174.750 49.000 C 174.887 49.000,175.000 48.925,175.000 48.833 C 175.000 48.742,175.110 48.667,175.244 48.667 C 175.379 48.667,175.751 48.404,176.072 48.083 C 176.812 47.344,176.833 47.348,176.833 48.250 L 176.833 49.000 181.500 49.000 L 186.167 49.000 186.164 36.792 C 186.162 28.848,186.105 24.671,186.000 24.833 C 185.887 25.008,185.837 24.732,185.833 23.917 C 185.830 23.101,185.780 22.825,185.667 23.000 C 185.542 23.194,185.505 23.143,185.503 22.775 C 185.500 22.230,185.038 21.167,184.805 21.167 C 184.718 21.167,184.693 21.092,184.750 21.000 C 184.807 20.908,184.761 20.833,184.649 20.833 C 184.536 20.833,184.491 20.787,184.548 20.730 C 184.652 20.626,184.556 20.515,183.841 19.917 C 183.600 19.715,183.499 19.682,183.587 19.833 C 183.760 20.134,183.282 19.799,182.814 19.292 C 182.666 19.131,182.459 19.000,182.355 19.000 C 182.252 19.000,182.167 18.925,182.167 18.833 C 182.167 18.742,182.017 18.667,181.833 18.667 C 181.650 18.667,181.500 18.592,181.500 18.500 C 181.500 18.408,181.317 18.333,181.093 18.333 C 180.869 18.333,180.650 18.274,180.605 18.202 C 180.560 18.129,180.239 18.051,179.892 18.027 C 179.544 18.004,179.218 17.916,179.166 17.833 C 179.039 17.627,172.167 17.634,172.167 17.841 M214.754 17.827 C 214.695 17.922,214.464 18.000,214.240 18.000 C 214.016 18.000,213.833 18.075,213.833 18.167 C 213.833 18.258,213.721 18.333,213.584 18.333 C 213.446 18.333,213.056 18.596,212.716 18.917 C 212.376 19.237,212.169 19.501,212.257 19.503 C 212.439 19.505,211.983 19.827,211.792 19.831 C 211.723 19.832,211.667 19.496,211.667 19.083 L 211.667 18.333 206.583 18.333 L 201.500 18.333 201.500 33.667 L 201.500 49.000 206.417 49.000 L 211.333 49.000 211.364 38.208 C 211.381 32.273,211.380 27.192,211.363 26.917 C 211.339 26.535,211.370 26.476,211.496 26.667 C 211.612 26.842,211.662 26.486,211.664 25.479 C 211.667 23.877,211.800 23.633,212.636 23.697 C 212.915 23.718,213.140 23.777,213.135 23.826 C 213.075 24.487,213.201 26.165,213.306 26.101 C 213.382 26.053,213.444 26.121,213.444 26.250 C 213.444 26.379,213.398 26.456,213.340 26.421 C 213.283 26.385,213.224 26.519,213.209 26.718 C 213.187 27.008,213.214 27.031,213.345 26.831 C 213.474 26.638,213.503 26.675,213.479 27.000 C 213.462 27.229,213.460 32.273,213.474 38.208 L 213.500 49.000 218.333 49.000 L 223.167 49.000 223.167 35.750 C 223.167 28.457,223.102 22.500,223.023 22.500 C 222.944 22.500,222.837 22.144,222.786 21.708 C 222.637 20.465,221.039 18.333,220.255 18.333 C 220.115 18.333,220.000 18.258,220.000 18.167 C 220.000 18.075,219.854 18.000,219.677 18.000 C 219.499 18.000,219.311 17.932,219.260 17.850 C 219.127 17.634,214.886 17.613,214.754 17.827 M232.000 17.813 C 232.000 17.880,231.681 17.953,231.292 17.976 C 230.902 17.998,230.558 18.088,230.528 18.175 C 230.497 18.262,230.295 18.333,230.079 18.333 C 229.863 18.333,229.640 18.408,229.583 18.500 C 229.527 18.592,229.343 18.667,229.175 18.667 C 229.007 18.667,228.822 18.790,228.764 18.941 C 228.706 19.091,228.615 19.171,228.562 19.118 C 228.509 19.065,228.282 19.186,228.057 19.386 C 226.886 20.430,226.356 20.967,226.428 21.039 C 226.472 21.083,226.394 21.214,226.254 21.330 C 226.114 21.446,226.000 21.724,226.000 21.947 C 226.000 22.206,225.932 22.311,225.812 22.237 C 225.697 22.165,225.656 22.210,225.707 22.352 C 225.753 22.479,225.685 22.841,225.557 23.157 C 225.253 23.905,225.273 29.140,225.583 29.905 C 225.697 30.186,225.756 30.510,225.714 30.625 C 225.673 30.740,225.720 30.833,225.819 30.833 C 225.919 30.833,226.000 31.007,226.000 31.219 C 226.000 31.430,226.150 31.765,226.333 31.962 C 226.517 32.158,226.667 32.402,226.667 32.503 C 226.667 32.604,226.742 32.640,226.833 32.583 C 226.925 32.527,227.000 32.602,227.000 32.750 C 227.000 32.898,227.075 32.973,227.167 32.917 C 227.258 32.860,227.333 32.931,227.333 33.073 C 227.333 33.229,227.478 33.333,227.694 33.333 C 227.893 33.333,228.008 33.381,227.949 33.440 C 227.832 33.557,228.975 34.667,229.211 34.667 C 229.291 34.667,229.470 34.780,229.609 34.918 C 229.747 35.057,229.929 35.127,230.013 35.075 C 230.098 35.023,230.167 35.052,230.167 35.139 C 230.167 35.226,230.354 35.344,230.583 35.402 C 230.813 35.459,231.000 35.580,231.000 35.670 C 231.000 35.760,231.098 35.833,231.219 35.833 C 231.339 35.833,231.596 35.981,231.790 36.162 C 232.038 36.393,232.167 36.430,232.225 36.287 C 232.288 36.130,232.310 36.131,232.320 36.292 C 232.327 36.406,232.446 36.500,232.583 36.500 C 232.721 36.500,232.833 36.575,232.833 36.667 C 232.833 36.758,232.946 36.833,233.083 36.833 C 233.221 36.833,233.333 36.908,233.333 37.000 C 233.333 37.092,233.446 37.167,233.583 37.167 C 233.721 37.167,233.833 37.228,233.833 37.303 C 233.833 37.378,234.302 37.656,234.875 37.922 C 236.441 38.647,236.980 39.273,237.061 40.456 C 237.097 40.985,237.175 41.604,237.233 41.833 C 237.323 42.183,237.315 42.197,237.182 41.917 C 237.060 41.661,237.021 41.801,237.012 42.524 C 236.999 43.510,236.799 43.766,236.107 43.679 C 235.921 43.655,235.841 43.712,235.908 43.820 C 235.971 43.921,235.901 44.000,235.750 44.000 C 235.602 44.000,235.527 43.925,235.583 43.833 C 235.642 43.739,235.502 43.667,235.260 43.667 C 235.025 43.667,234.833 43.587,234.833 43.490 C 234.833 43.393,234.772 43.351,234.697 43.398 C 234.623 43.444,234.544 43.167,234.524 42.783 C 234.473 41.843,234.433 41.624,234.261 41.349 C 234.153 41.176,234.176 41.150,234.349 41.249 C 234.539 41.357,234.544 41.339,234.375 41.158 C 234.243 41.016,234.167 40.426,234.167 39.550 L 234.167 38.167 229.914 38.167 L 225.661 38.167 225.676 40.831 C 225.684 42.296,225.760 43.538,225.845 43.591 C 225.930 43.643,226.000 43.940,226.000 44.250 C 226.000 44.560,226.075 44.860,226.167 44.917 C 226.258 44.973,226.333 45.157,226.333 45.325 C 226.333 45.493,226.457 45.678,226.607 45.736 C 226.758 45.794,226.838 45.884,226.785 45.937 C 226.732 45.990,226.928 46.280,227.219 46.581 C 227.511 46.882,227.963 47.362,228.222 47.648 C 228.482 47.933,228.801 48.167,228.931 48.167 C 229.061 48.167,229.167 48.233,229.167 48.314 C 229.167 48.396,229.506 48.513,229.920 48.575 C 230.334 48.637,230.639 48.743,230.598 48.809 C 230.557 48.876,230.686 48.943,230.884 48.958 C 231.083 48.973,231.271 49.064,231.303 49.159 C 231.335 49.255,231.655 49.333,232.014 49.333 C 232.373 49.333,232.667 49.408,232.667 49.500 C 232.667 49.606,233.913 49.667,236.073 49.667 C 238.165 49.667,239.520 49.602,239.583 49.500 C 239.640 49.408,239.907 49.333,240.177 49.333 C 240.446 49.333,240.667 49.258,240.667 49.167 C 240.667 49.075,240.892 49.000,241.167 49.000 C 241.442 49.000,241.667 48.933,241.667 48.852 C 241.667 48.770,241.927 48.655,242.245 48.595 C 242.564 48.535,242.899 48.358,242.990 48.202 C 243.082 48.045,243.159 47.979,243.162 48.054 C 243.164 48.130,243.397 47.962,243.679 47.679 C 243.962 47.397,244.262 47.167,244.346 47.167 C 244.431 47.167,244.501 46.998,244.503 46.792 C 244.505 46.488,244.536 46.465,244.667 46.667 C 244.797 46.869,244.829 46.845,244.831 46.542 C 244.832 46.335,244.908 46.167,245.000 46.167 C 245.092 46.167,245.167 46.054,245.167 45.917 C 245.167 45.779,245.242 45.667,245.333 45.667 C 245.425 45.667,245.500 45.517,245.500 45.333 C 245.500 45.150,245.575 45.000,245.667 45.000 C 245.758 45.000,245.833 44.700,245.833 44.333 C 245.833 43.967,245.910 43.667,246.005 43.667 C 246.117 43.667,246.171 42.491,246.160 40.250 C 246.150 38.268,246.078 36.833,245.988 36.833 C 245.903 36.833,245.833 36.608,245.833 36.333 C 245.833 36.058,245.767 35.833,245.687 35.833 C 245.606 35.833,245.443 35.598,245.324 35.311 C 245.044 34.634,243.319 32.833,242.951 32.833 C 242.795 32.833,242.667 32.767,242.667 32.687 C 242.667 32.606,242.442 32.447,242.167 32.333 C 241.892 32.219,241.667 32.060,241.667 31.980 C 241.667 31.899,241.554 31.833,241.417 31.833 C 241.279 31.833,241.167 31.758,241.167 31.667 C 241.167 31.575,241.023 31.500,240.847 31.500 C 240.672 31.500,240.503 31.431,240.472 31.346 C 240.442 31.261,240.306 31.167,240.171 31.137 C 240.035 31.108,239.823 30.989,239.699 30.873 C 239.575 30.758,239.404 30.706,239.320 30.758 C 239.236 30.810,239.167 30.782,239.167 30.695 C 239.167 30.607,238.961 30.485,238.710 30.422 C 238.459 30.358,238.208 30.234,238.153 30.145 C 238.098 30.056,237.897 29.971,237.705 29.957 C 237.513 29.943,237.393 29.871,237.438 29.799 C 237.483 29.726,237.344 29.667,237.130 29.667 C 236.916 29.667,236.632 29.517,236.500 29.333 C 236.368 29.150,236.198 29.000,236.122 29.000 C 236.047 29.000,235.796 28.811,235.565 28.580 C 235.334 28.349,235.073 28.205,234.985 28.259 C 234.897 28.314,234.846 28.286,234.871 28.197 C 234.896 28.109,234.758 27.897,234.565 27.726 C 234.371 27.556,234.165 27.135,234.106 26.792 C 234.048 26.448,233.954 25.904,233.898 25.583 C 233.833 25.206,233.862 25.000,233.982 25.000 C 234.083 25.000,234.167 24.827,234.167 24.615 C 234.167 23.307,236.295 23.194,236.344 24.500 C 236.352 24.729,236.389 25.142,236.425 25.417 C 236.461 25.692,236.539 26.460,236.597 27.125 L 236.704 28.333 241.102 28.333 L 245.500 28.333 245.500 25.514 C 245.500 23.702,245.438 22.674,245.326 22.636 C 245.230 22.605,245.140 22.416,245.125 22.217 C 245.110 22.019,245.038 21.893,244.965 21.938 C 244.893 21.983,244.833 21.861,244.833 21.667 C 244.833 21.473,244.758 21.360,244.667 21.417 C 244.575 21.473,244.500 21.440,244.500 21.343 C 244.500 20.984,244.444 20.901,243.688 20.129 C 243.217 19.648,242.767 19.340,242.532 19.338 C 242.319 19.335,242.193 19.259,242.250 19.167 C 242.307 19.075,242.199 19.000,242.010 19.000 C 241.821 19.000,241.667 18.934,241.667 18.853 C 241.667 18.710,241.266 18.541,240.583 18.395 C 240.400 18.356,240.225 18.251,240.194 18.162 C 240.164 18.073,239.845 18.000,239.486 18.000 C 239.127 18.000,238.833 17.922,238.833 17.828 C 238.833 17.714,237.669 17.662,235.417 17.673 C 233.537 17.683,232.000 17.746,232.000 17.813 M320.500 17.833 C 320.500 17.925,320.331 18.000,320.125 18.000 C 319.919 18.000,319.525 18.190,319.250 18.422 C 318.975 18.654,318.525 19.029,318.250 19.256 C 317.975 19.483,317.581 19.808,317.375 19.979 C 317.169 20.149,317.000 20.412,317.000 20.561 C 317.000 20.711,316.925 20.833,316.833 20.833 C 316.737 20.833,316.667 20.306,316.667 19.583 L 316.667 18.333 311.833 18.333 L 307.000 18.333 307.000 33.667 L 307.000 49.000 311.833 49.000 L 316.667 49.000 316.693 42.625 C 316.707 39.119,316.716 36.156,316.711 36.042 C 316.707 35.927,316.770 35.833,316.852 35.833 C 316.933 35.833,317.000 35.716,317.000 35.573 C 317.000 35.431,316.925 35.360,316.833 35.417 C 316.740 35.474,316.668 35.349,316.669 35.135 C 316.671 34.839,316.707 34.805,316.823 34.990 C 316.920 35.142,316.980 34.508,316.988 33.250 C 316.994 32.161,317.056 31.228,317.125 31.177 C 317.194 31.125,317.273 30.976,317.302 30.844 C 317.331 30.712,317.556 30.422,317.802 30.199 C 318.048 29.976,318.145 29.852,318.016 29.923 C 317.859 30.009,317.822 29.987,317.902 29.856 C 317.969 29.749,318.084 29.699,318.159 29.745 C 318.234 29.792,318.388 29.718,318.502 29.581 C 318.615 29.445,318.833 29.333,318.987 29.333 C 319.141 29.333,319.343 29.257,319.437 29.163 C 319.530 29.070,320.070 28.987,320.636 28.979 C 321.201 28.971,321.623 28.897,321.572 28.815 C 321.522 28.734,321.602 28.667,321.750 28.667 C 321.921 28.667,321.974 28.743,321.895 28.875 C 321.809 29.017,321.860 29.010,322.051 28.855 C 322.306 28.648,322.333 28.092,322.333 23.146 L 322.333 17.667 321.417 17.667 C 320.912 17.667,320.500 17.742,320.500 17.833 M330.833 17.825 C 330.833 17.888,330.349 18.042,329.758 18.165 C 329.166 18.289,328.720 18.452,328.767 18.528 C 328.843 18.650,328.473 18.741,328.125 18.686 C 328.056 18.676,328.000 18.742,328.000 18.833 C 328.000 18.925,327.878 19.000,327.728 19.000 C 327.578 19.000,327.334 19.139,327.186 19.309 C 327.038 19.480,326.747 19.673,326.539 19.738 C 326.332 19.804,326.205 19.927,326.257 20.012 C 326.310 20.097,326.236 20.167,326.093 20.167 C 325.950 20.167,325.833 20.292,325.833 20.444 C 325.833 20.597,325.788 20.677,325.732 20.621 C 325.607 20.496,324.833 21.251,324.833 21.499 C 324.833 21.599,324.692 21.833,324.519 22.019 C 324.191 22.370,324.000 23.042,324.000 23.844 C 324.000 24.102,323.925 24.360,323.833 24.417 C 323.733 24.479,323.667 25.641,323.667 27.343 L 323.667 30.167 328.167 30.167 L 332.667 30.167 332.667 28.367 C 332.667 27.157,332.735 26.493,332.875 26.342 C 333.042 26.163,333.042 26.141,332.875 26.235 C 332.737 26.313,332.667 26.234,332.667 26.000 C 332.667 25.806,332.732 25.687,332.812 25.737 C 332.891 25.786,332.965 25.439,332.976 24.966 C 332.987 24.493,333.080 24.054,333.183 23.990 C 333.315 23.908,333.304 23.847,333.144 23.783 C 332.907 23.689,333.678 23.591,334.243 23.644 C 334.698 23.687,334.774 23.872,334.816 25.046 C 334.837 25.612,334.905 26.115,334.968 26.163 C 335.160 26.308,335.173 27.857,334.981 27.739 C 334.888 27.681,334.825 27.734,334.842 27.858 C 335.011 29.088,334.532 30.000,333.719 30.000 C 333.507 30.000,333.333 30.067,333.333 30.148 C 333.333 30.230,333.071 30.345,332.750 30.406 C 332.429 30.466,332.167 30.587,332.167 30.674 C 332.167 30.762,332.017 30.833,331.833 30.833 C 331.650 30.833,331.500 30.908,331.500 31.000 C 331.500 31.092,331.308 31.167,331.073 31.167 C 330.832 31.167,330.692 31.239,330.750 31.333 C 330.810 31.431,330.641 31.500,330.343 31.500 C 330.063 31.500,329.833 31.575,329.833 31.667 C 329.833 31.758,329.627 31.834,329.375 31.836 C 329.018 31.838,328.972 31.874,329.167 32.000 C 329.397 32.149,328.956 32.265,328.458 32.186 C 328.390 32.176,328.333 32.242,328.333 32.333 C 328.333 32.425,328.183 32.500,328.000 32.500 C 327.817 32.500,327.667 32.567,327.667 32.648 C 327.667 32.730,327.404 32.845,327.083 32.906 C 326.762 32.966,326.500 33.087,326.500 33.174 C 326.500 33.262,326.367 33.333,326.203 33.333 C 326.040 33.333,325.799 33.483,325.667 33.667 C 325.535 33.850,325.336 34.000,325.224 34.000 C 325.113 34.000,324.972 34.160,324.910 34.355 C 324.832 34.599,324.758 34.647,324.672 34.509 C 324.543 34.300,324.000 35.441,324.000 35.920 C 324.000 36.056,323.906 36.168,323.792 36.169 C 323.653 36.171,323.667 36.226,323.833 36.333 C 324.000 36.441,324.014 36.496,323.875 36.497 C 323.713 36.499,323.667 37.519,323.669 41.042 C 323.671 44.036,323.727 45.498,323.833 45.333 C 323.952 45.150,323.996 45.273,323.997 45.792 C 323.999 46.181,324.079 46.500,324.177 46.500 C 324.274 46.500,324.308 46.572,324.254 46.661 C 323.975 47.112,325.515 48.667,326.242 48.667 C 326.384 48.667,326.500 48.742,326.500 48.833 C 326.500 48.925,326.612 49.000,326.750 49.000 C 326.887 49.000,327.000 49.075,327.000 49.167 C 327.000 49.258,327.221 49.333,327.490 49.333 C 327.760 49.333,328.027 49.408,328.083 49.500 C 328.220 49.721,332.446 49.721,332.583 49.500 C 332.640 49.408,332.832 49.333,333.010 49.333 C 333.188 49.333,333.333 49.267,333.333 49.186 C 333.333 49.104,333.587 48.918,333.897 48.771 C 334.206 48.624,334.638 48.278,334.855 48.003 C 335.389 47.327,335.500 47.369,335.500 48.250 L 335.500 49.000 340.253 49.000 L 345.007 49.000 344.996 36.922 C 344.989 29.444,344.924 24.806,344.826 24.745 C 344.738 24.691,344.667 24.281,344.667 23.833 C 344.667 23.386,344.592 22.973,344.500 22.917 C 344.408 22.860,344.333 22.668,344.333 22.490 C 344.333 22.312,344.258 22.167,344.167 22.167 C 344.075 22.167,344.000 22.017,344.000 21.833 C 344.000 21.650,343.943 21.500,343.874 21.500 C 343.805 21.500,343.652 21.283,343.535 21.018 C 343.417 20.753,343.174 20.497,342.994 20.450 C 342.814 20.403,342.667 20.262,342.667 20.137 C 342.667 20.012,342.404 19.768,342.083 19.595 C 341.762 19.422,341.500 19.218,341.500 19.140 C 341.500 19.063,341.350 19.000,341.167 19.000 C 340.983 19.000,340.833 18.925,340.833 18.833 C 340.833 18.742,340.688 18.667,340.510 18.667 C 340.332 18.667,340.140 18.592,340.083 18.500 C 340.027 18.408,339.835 18.333,339.657 18.333 C 339.479 18.333,339.333 18.270,339.333 18.194 C 339.333 18.117,339.058 18.044,338.721 18.031 C 338.384 18.018,338.058 17.927,337.997 17.828 C 337.872 17.627,330.833 17.624,330.833 17.825 M354.667 17.833 C 354.667 17.925,354.404 18.000,354.083 18.000 C 353.762 18.000,353.500 18.075,353.500 18.167 C 353.500 18.258,353.350 18.333,353.167 18.333 C 352.983 18.333,352.833 18.408,352.833 18.500 C 352.833 18.592,352.683 18.667,352.500 18.667 C 352.317 18.667,352.167 18.742,352.167 18.833 C 352.167 18.925,352.017 19.000,351.833 19.000 C 351.650 19.000,351.500 19.075,351.500 19.167 C 351.500 19.258,351.428 19.333,351.340 19.333 C 350.965 19.333,349.337 20.622,348.978 21.202 C 348.764 21.549,348.531 21.833,348.461 21.833 C 348.391 21.833,348.333 21.979,348.333 22.157 C 348.333 22.335,348.255 22.529,348.160 22.588 C 348.064 22.646,348.035 22.848,348.094 23.035 C 348.166 23.262,348.141 23.337,348.018 23.261 C 347.897 23.186,347.833 23.340,347.833 23.707 C 347.833 24.015,347.740 24.368,347.625 24.491 C 347.456 24.674,347.463 24.689,347.667 24.576 C 347.876 24.459,347.882 24.479,347.706 24.697 C 347.442 25.023,347.409 42.167,347.672 42.167 C 347.761 42.167,347.833 42.423,347.833 42.736 C 347.833 43.049,347.927 43.343,348.042 43.390 C 348.189 43.449,348.192 43.478,348.053 43.487 C 347.918 43.496,347.898 43.645,347.989 43.960 C 348.220 44.767,348.767 45.844,348.886 45.725 C 348.949 45.663,349.000 45.722,349.000 45.857 C 349.000 45.993,349.150 46.265,349.333 46.462 C 349.517 46.658,349.667 46.898,349.667 46.993 C 349.667 47.089,349.792 47.167,349.944 47.167 C 350.097 47.167,350.175 47.214,350.116 47.273 C 349.938 47.450,351.381 48.490,351.958 48.600 C 352.256 48.657,352.500 48.770,352.500 48.852 C 352.500 48.933,352.744 49.001,353.042 49.003 C 353.453 49.004,353.523 49.044,353.333 49.167 C 353.147 49.287,353.243 49.329,353.708 49.331 C 354.052 49.332,354.333 49.411,354.333 49.506 C 354.333 49.619,355.497 49.672,357.750 49.660 C 359.720 49.649,361.167 49.576,361.167 49.488 C 361.167 49.403,361.467 49.333,361.833 49.333 C 362.200 49.333,362.500 49.258,362.500 49.167 C 362.500 49.075,362.610 49.000,362.745 49.000 C 362.880 49.000,363.255 48.851,363.578 48.670 C 363.902 48.488,364.167 48.375,364.167 48.420 C 364.167 48.464,364.317 48.350,364.500 48.167 C 364.683 47.983,364.911 47.833,365.006 47.833 C 365.247 47.833,366.345 46.709,366.293 46.516 C 366.269 46.428,366.377 46.258,366.533 46.137 C 366.688 46.016,366.838 45.804,366.866 45.667 C 366.894 45.529,367.053 45.291,367.219 45.138 C 367.386 44.984,367.517 44.815,367.511 44.763 C 367.465 44.362,367.526 44.163,367.667 44.250 C 367.761 44.308,367.833 44.172,367.833 43.936 C 367.833 43.707,367.908 43.473,368.000 43.417 C 368.092 43.360,368.167 43.014,368.167 42.647 C 368.167 42.280,368.236 42.023,368.320 42.075 C 368.411 42.131,368.481 40.948,368.492 39.168 L 368.511 36.167 364.256 36.167 L 360.000 36.167 360.000 38.094 C 360.000 39.177,359.920 40.172,359.817 40.364 C 359.683 40.613,359.683 40.676,359.817 40.594 C 359.921 40.529,360.000 40.596,360.000 40.750 C 360.000 40.898,359.935 40.979,359.855 40.930 C 359.775 40.881,359.699 41.330,359.686 41.929 C 359.659 43.187,359.400 43.580,358.519 43.703 C 358.072 43.766,357.939 43.719,357.875 43.474 C 357.831 43.305,357.741 43.167,357.675 43.167 C 357.544 43.167,357.520 42.978,357.496 41.796 C 357.488 41.362,357.408 40.963,357.319 40.908 C 357.219 40.846,357.163 37.956,357.172 33.233 C 357.179 29.067,357.243 25.694,357.314 25.738 C 357.384 25.782,357.443 25.452,357.444 25.007 C 357.447 24.131,357.744 23.667,358.301 23.667 C 358.823 23.667,359.045 24.100,359.023 25.076 C 359.011 25.574,359.077 26.028,359.168 26.084 C 359.262 26.143,359.333 27.038,359.333 28.177 L 359.333 30.167 363.917 30.167 L 368.500 30.167 368.500 27.847 C 368.500 26.533,368.431 25.504,368.342 25.472 C 368.255 25.442,368.165 25.098,368.142 24.708 C 368.120 24.319,368.041 24.000,367.967 24.000 C 367.894 24.000,367.833 23.771,367.833 23.490 C 367.833 23.193,367.764 23.023,367.667 23.083 C 367.572 23.142,367.500 22.999,367.500 22.752 C 367.500 22.511,367.314 22.132,367.080 21.898 C 366.849 21.667,366.698 21.417,366.745 21.342 C 366.871 21.137,365.334 19.667,364.992 19.667 C 364.828 19.667,364.669 19.610,364.639 19.542 C 364.555 19.352,363.537 18.667,363.340 18.667 C 363.245 18.667,363.167 18.592,363.167 18.500 C 363.167 18.408,362.900 18.333,362.573 18.333 C 362.220 18.333,362.022 18.266,362.083 18.167 C 362.145 18.067,361.946 18.000,361.593 18.000 C 361.267 18.000,361.000 17.925,361.000 17.833 C 361.000 17.728,359.833 17.667,357.833 17.667 C 355.833 17.667,354.667 17.728,354.667 17.833 M281.429 18.147 C 281.379 18.228,281.636 18.298,281.999 18.303 C 282.917 18.316,283.468 18.884,283.534 19.885 C 283.561 20.297,283.631 20.605,283.689 20.570 C 283.890 20.445,283.855 23.856,283.653 24.100 C 283.513 24.268,283.511 24.333,283.646 24.333 C 283.749 24.333,283.833 24.450,283.833 24.593 C 283.833 24.736,283.767 24.812,283.685 24.762 C 283.604 24.711,283.541 24.763,283.545 24.877 C 283.601 26.420,283.104 27.167,282.022 27.167 L 281.333 27.167 281.333 22.847 C 281.333 20.471,281.288 18.409,281.232 18.264 C 281.176 18.116,281.217 18.000,281.325 18.000 C 281.432 18.000,281.479 18.066,281.429 18.147 M59.500 33.667 L 59.500 49.000 64.333 49.000 L 69.167 49.000 69.167 33.667 L 69.167 18.333 64.333 18.333 L 59.500 18.333 59.500 33.667 M189.000 33.667 L 189.000 49.000 193.833 49.000 L 198.667 49.000 198.667 33.667 L 198.667 18.333 193.833 18.333 L 189.000 18.333 189.000 33.667 M294.500 33.667 L 294.500 49.000 299.333 49.000 L 304.167 49.000 304.167 33.667 L 304.167 18.333 299.333 18.333 L 294.500 18.333 294.500 33.667 M369.236 19.759 C 369.298 20.542,369.430 21.386,369.530 21.634 C 369.630 21.881,369.700 22.303,369.684 22.571 C 369.669 22.838,369.733 23.105,369.826 23.162 C 369.919 23.219,370.008 23.616,370.024 24.043 C 370.040 24.470,370.116 24.781,370.193 24.733 C 370.316 24.658,370.420 25.720,370.346 26.292 C 370.331 26.406,370.397 26.500,370.493 26.500 C 370.588 26.500,370.667 26.710,370.667 26.967 C 370.667 27.223,370.760 27.534,370.875 27.658 C 371.042 27.837,371.042 27.859,370.875 27.765 C 370.760 27.700,370.667 27.726,370.667 27.823 C 370.667 27.921,370.742 28.000,370.833 28.000 C 370.925 28.000,371.000 28.323,371.000 28.717 C 371.000 29.111,371.072 29.505,371.160 29.593 C 371.247 29.681,371.341 30.071,371.368 30.459 C 371.395 30.848,371.473 31.166,371.542 31.166 C 371.610 31.167,371.667 31.471,371.667 31.843 C 371.667 32.252,371.733 32.479,371.833 32.417 C 371.935 32.354,372.005 32.626,372.012 33.115 C 372.023 33.844,372.108 34.462,372.431 36.167 C 372.492 36.487,372.626 36.858,372.729 36.990 C 372.879 37.182,372.866 37.202,372.667 37.091 C 372.463 36.977,372.456 36.993,372.625 37.176 C 372.740 37.299,372.833 37.681,372.833 38.023 C 372.833 38.366,372.908 38.693,373.000 38.750 C 373.092 38.807,373.167 39.191,373.167 39.603 C 373.167 40.061,373.232 40.313,373.333 40.250 C 373.436 40.187,373.500 40.470,373.500 40.990 C 373.500 41.454,373.575 41.833,373.667 41.833 C 373.758 41.833,373.833 42.165,373.833 42.569 C 373.833 42.974,373.904 43.331,373.991 43.361 C 374.078 43.392,374.167 43.769,374.188 44.199 C 374.210 44.630,374.289 44.944,374.364 44.898 C 374.439 44.851,374.500 45.151,374.500 45.564 C 374.500 45.976,374.572 46.358,374.660 46.413 C 374.763 46.476,374.763 46.663,374.661 46.932 C 374.555 47.209,374.558 47.317,374.667 47.250 C 374.911 47.099,374.870 47.321,374.604 47.586 C 374.478 47.712,373.954 47.838,373.438 47.866 C 372.923 47.894,372.501 47.973,372.501 48.042 C 372.500 48.110,372.421 48.167,372.323 48.167 C 372.226 48.167,372.199 48.082,372.263 47.978 C 372.337 47.860,372.294 47.829,372.148 47.895 C 372.021 47.953,371.785 48.046,371.625 48.103 C 371.364 48.195,371.333 48.482,371.333 50.853 L 371.333 53.500 376.486 53.500 C 379.659 53.500,381.660 53.438,381.694 53.339 C 381.725 53.250,381.994 53.159,382.292 53.137 C 382.590 53.114,382.833 53.037,382.833 52.965 C 382.833 52.892,383.058 52.833,383.333 52.833 C 383.608 52.833,383.833 52.758,383.833 52.667 C 383.833 52.575,383.946 52.500,384.083 52.500 C 384.221 52.500,384.333 52.425,384.333 52.333 C 384.333 52.242,384.408 52.167,384.500 52.167 C 384.749 52.167,386.000 50.829,386.000 50.563 C 386.000 50.437,386.075 50.333,386.167 50.333 C 386.258 50.333,386.333 50.188,386.333 50.010 C 386.333 49.832,386.408 49.640,386.500 49.583 C 386.592 49.527,386.668 49.279,386.669 49.032 C 386.671 48.681,386.707 48.638,386.833 48.833 C 386.954 49.020,386.996 48.928,386.997 48.472 C 386.999 48.136,387.071 47.836,387.157 47.806 C 387.244 47.775,387.332 47.319,387.353 46.792 C 387.373 46.265,387.453 45.833,387.529 45.833 C 387.605 45.833,387.667 45.463,387.667 45.011 C 387.667 44.558,387.735 44.008,387.819 43.787 C 387.903 43.566,388.026 42.342,388.091 41.067 C 388.157 39.793,388.276 38.725,388.355 38.694 C 388.435 38.664,388.500 38.135,388.500 37.519 C 388.500 36.855,388.585 36.309,388.708 36.176 C 388.878 35.993,388.870 35.976,388.667 36.083 C 388.464 36.191,388.456 36.173,388.625 35.991 C 388.752 35.854,388.833 35.294,388.833 34.560 C 388.833 33.896,388.908 33.307,389.000 33.250 C 389.092 33.193,389.167 32.706,389.167 32.167 C 389.167 31.627,389.242 31.140,389.333 31.083 C 389.425 31.027,389.500 30.437,389.500 29.773 C 389.500 29.039,389.582 28.479,389.708 28.342 C 389.878 28.160,389.870 28.143,389.667 28.250 C 389.464 28.357,389.456 28.340,389.625 28.158 C 389.752 28.020,389.833 27.457,389.833 26.707 C 389.833 26.032,389.898 25.520,389.976 25.568 C 390.054 25.617,390.132 25.161,390.149 24.556 C 390.166 23.950,390.255 23.313,390.348 23.140 C 390.440 22.967,390.510 22.471,390.502 22.038 C 390.494 21.604,390.539 20.594,390.601 19.792 L 390.714 18.333 386.357 18.333 L 382.000 18.333 382.000 19.093 C 382.000 19.557,381.935 19.813,381.833 19.750 C 381.726 19.683,381.667 20.378,381.667 21.712 C 381.667 22.848,381.610 23.834,381.542 23.903 C 381.391 24.054,381.382 24.196,381.352 26.750 C 381.336 28.110,381.277 28.670,381.167 28.500 C 381.058 28.332,381.004 28.967,381.003 30.448 C 381.001 31.738,380.931 32.690,380.833 32.750 C 380.741 32.807,380.675 33.131,380.687 33.469 C 380.738 34.889,380.656 36.000,380.500 36.000 C 380.408 36.000,380.333 35.587,380.333 35.083 C 380.333 34.579,380.268 34.167,380.189 34.167 C 380.110 34.167,379.991 33.210,379.924 32.042 C 379.858 30.873,379.732 29.829,379.643 29.723 C 379.555 29.616,379.481 29.072,379.478 28.514 C 379.475 27.956,379.404 27.500,379.320 27.500 C 379.236 27.500,379.167 27.087,379.167 26.583 C 379.167 25.962,379.099 25.666,378.958 25.664 C 378.819 25.662,378.833 25.608,379.000 25.500 C 379.167 25.392,379.181 25.338,379.042 25.336 C 378.897 25.334,378.833 25.006,378.833 24.260 C 378.833 23.669,378.758 23.140,378.667 23.083 C 378.575 23.027,378.500 22.662,378.500 22.273 C 378.500 21.885,378.430 21.495,378.345 21.408 C 378.260 21.321,378.171 20.767,378.148 20.177 C 378.125 19.587,378.026 18.932,377.928 18.720 L 377.750 18.336 373.437 18.335 L 369.124 18.333 369.236 19.759 M151.583 23.500 C 151.527 23.592,151.565 23.667,151.669 23.667 C 152.124 23.667,152.360 24.185,152.355 25.173 C 152.353 25.791,152.414 26.137,152.515 26.074 C 152.622 26.008,152.672 27.985,152.659 31.736 C 152.647 35.091,152.574 37.500,152.486 37.500 C 152.402 37.500,152.333 37.955,152.333 38.512 C 152.333 39.485,152.111 40.000,151.692 40.000 C 151.602 40.000,151.499 40.085,151.465 40.189 C 151.224 40.910,150.424 39.607,150.478 38.583 C 150.504 38.086,150.470 37.980,150.344 38.167 C 150.228 38.338,150.176 36.410,150.179 32.037 C 150.181 28.042,150.242 25.694,150.341 25.755 C 150.432 25.811,150.501 25.546,150.502 25.135 C 150.506 24.096,150.657 23.667,151.019 23.667 C 151.192 23.667,151.333 23.592,151.333 23.500 C 151.333 23.408,151.413 23.333,151.510 23.333 C 151.607 23.333,151.640 23.408,151.583 23.500 M14.000 24.310 C 14.000 24.469,14.094 24.701,14.208 24.824 C 14.375 25.004,14.375 25.025,14.208 24.931 C 14.094 24.867,14.000 24.893,14.000 24.990 C 14.000 25.087,14.075 25.167,14.167 25.167 C 14.266 25.167,14.333 25.806,14.333 26.750 C 14.333 27.694,14.401 28.333,14.500 28.333 C 14.597 28.333,14.672 28.940,14.681 29.792 C 14.688 30.594,14.745 32.083,14.806 33.100 C 14.957 35.627,15.014 35.500,13.738 35.500 L 12.667 35.500 12.667 34.283 C 12.667 33.541,12.748 32.979,12.875 32.842 C 13.044 32.660,13.036 32.643,12.833 32.750 C 12.630 32.857,12.622 32.840,12.792 32.658 C 12.918 32.521,13.000 31.961,13.000 31.227 C 13.000 30.563,13.075 29.973,13.167 29.917 C 13.258 29.860,13.333 29.223,13.333 28.500 C 13.333 27.755,13.410 27.139,13.510 27.077 C 13.607 27.017,13.674 26.807,13.658 26.609 C 13.573 25.528,13.684 23.824,13.833 23.917 C 13.925 23.973,14.000 24.150,14.000 24.310 M127.503 24.625 C 127.505 24.982,127.541 25.028,127.667 24.833 C 127.808 24.614,127.953 27.512,127.840 28.316 C 127.822 28.443,127.885 28.596,127.980 28.654 C 128.077 28.714,128.164 29.501,128.179 30.461 C 128.194 31.397,128.272 32.121,128.353 32.071 C 128.434 32.021,128.500 32.715,128.500 33.623 C 128.500 34.527,128.572 35.338,128.659 35.425 C 128.760 35.525,128.355 35.563,127.560 35.528 L 126.302 35.473 126.408 33.945 C 126.582 31.424,126.633 30.786,126.726 30.000 C 126.775 29.587,126.830 28.706,126.849 28.042 C 126.868 27.377,126.947 26.833,127.025 26.833 C 127.103 26.833,127.167 26.233,127.167 25.500 C 127.167 24.722,127.236 24.167,127.333 24.167 C 127.425 24.167,127.501 24.373,127.503 24.625 M176.483 38.458 C 176.474 40.451,176.410 41.740,176.333 41.500 C 176.238 41.204,176.195 41.432,176.183 42.292 C 176.173 43.021,176.097 43.500,175.990 43.500 C 175.893 43.500,175.848 43.556,175.891 43.625 C 175.934 43.694,175.708 43.742,175.390 43.733 C 174.565 43.709,174.256 43.333,174.312 42.419 C 174.340 41.962,174.288 41.667,174.178 41.667 C 173.996 41.667,174.030 40.189,174.220 39.882 C 174.272 39.798,174.329 39.153,174.348 38.448 C 174.367 37.743,174.454 37.167,174.542 37.167 C 174.630 37.167,174.658 37.050,174.603 36.908 C 174.546 36.760,174.574 36.693,174.669 36.751 C 174.759 36.807,174.833 36.729,174.833 36.577 C 174.833 36.425,175.077 36.083,175.375 35.817 C 175.673 35.552,175.992 35.263,176.083 35.175 C 176.459 34.817,176.499 35.146,176.483 38.458 M335.156 38.416 C 335.143 40.391,335.070 41.793,334.983 41.740 C 334.901 41.689,334.833 42.101,334.833 42.657 L 334.833 43.667 334.125 43.664 C 333.083 43.660,333.007 43.560,332.970 42.126 C 332.950 41.342,332.874 40.891,332.774 40.954 C 332.672 41.017,332.661 40.935,332.746 40.736 C 332.821 40.560,332.914 39.779,332.954 39.000 C 332.993 38.221,333.095 37.558,333.179 37.528 C 333.264 37.497,333.334 37.235,333.336 36.944 C 333.338 36.542,333.377 36.476,333.500 36.667 C 333.637 36.879,333.662 36.872,333.664 36.618 C 333.667 36.332,334.773 35.051,335.048 35.017 C 335.120 35.007,335.169 36.537,335.156 38.416 M390.500 45.083 L 390.500 49.000 394.083 49.000 L 397.667 49.000 397.667 45.083 L 397.667 41.167 394.083 41.167 L 390.500 41.167 390.500 45.083 " stroke="none" fill="#ffffff" fill-rule="evenodd"></path></g></svg>